<svg version="1.1" id="Layer_1" xmlns="http://www.w3.org/2000/svg" xmlns:xlink="http://www.w3.org/1999/xlink" x="0px" y="0px"
	 width="100%" viewBox="0 0 1536 1024" enable-background="new 0 0 1536 1024" xml:space="preserve">
<path fill="#FD5A32" opacity="1.000000" stroke="none" 
	d="
M696.457581,496.850098 
	C676.267883,494.079376 665.553711,478.621613 663.047058,459.442841 
	C658.477783,424.483398 669.349182,395.260162 696.836304,372.671173 
	C732.908325,343.027100 784.452698,345.759399 817.457092,378.779663 
	C835.288696,396.619873 845.201782,417.955994 846.489014,443.073700 
	C847.162903,456.223358 845.113281,469.020996 837.242188,480.123810 
	C826.393494,495.426697 808.576782,500.286469 790.211670,493.741913 
	C780.729370,490.362823 771.088928,486.981598 761.230896,485.208282 
	C746.726624,482.599304 732.881165,486.455658 719.665405,492.571045 
	C712.441284,495.913849 704.909180,497.665100 696.457581,496.850098 
z"/>
<path fill="#FC5A33" opacity="1.000000" stroke="none" 
	d="
M810.973206,699.123169 
	C811.131287,706.433533 809.979553,709.054871 803.494202,709.596741 
	C793.316772,710.447021 783.008972,710.190552 772.781433,709.779175 
	C768.329895,709.600098 765.202332,706.311890 764.079895,701.910217 
	C762.524048,695.809082 761.536682,689.558228 759.848694,683.498779 
	C759.413147,681.935364 757.293213,679.744873 755.905151,679.713806 
	C742.929321,679.424072 729.944397,679.542053 716.574097,679.542053 
	C715.051331,686.161743 713.449951,692.540894 712.139709,698.979187 
	C710.768555,705.716858 706.605835,710.002075 700.056702,710.378235 
	C691.161682,710.889038 682.106384,710.852173 673.287354,709.731628 
	C666.278809,708.841125 663.806335,704.701172 664.990479,697.462280 
	C666.351196,689.144348 668.419128,680.924866 670.506531,672.745972 
	C679.933533,635.808655 689.500305,598.906982 698.965881,561.979431 
	C703.094421,545.873108 709.793213,539.772339 726.441650,539.034058 
	C736.841736,538.572754 747.359131,538.953735 757.721252,539.986572 
	C766.688721,540.880432 772.392151,547.010986 774.925415,555.387390 
	C778.712524,567.909851 782.100220,580.564392 785.275024,593.258484 
	C793.446350,625.930664 801.413452,658.654053 809.439636,691.362488 
	C810.032715,693.779663 810.445129,696.241272 810.973206,699.123169 
M747.369202,645.249451 
	C749.657410,645.249451 751.945618,645.249451 755.068970,645.249451 
	C749.526306,623.082214 744.149170,601.576843 738.772034,580.071533 
	C738.119080,580.052429 737.466125,580.033325 736.813171,580.014221 
	C731.583984,601.559998 726.354736,623.105774 720.980408,645.249634 
	C729.827148,645.249634 738.116455,645.249634 747.369202,645.249451 
z"/>
<path fill="#FC5A33" opacity="1.000000" stroke="none" 
	d="
M512.189941,606.686401 
	C519.667175,636.390625 527.104858,665.680542 534.369324,695.013245 
	C536.587585,703.970642 533.675476,708.814392 524.645569,709.753296 
	C516.291016,710.621948 507.766907,710.489807 499.361359,710.017639 
	C493.656677,709.697205 489.437958,706.354919 488.027832,700.395630 
	C486.652710,694.584045 485.223816,688.778625 484.107971,682.915344 
	C483.621338,680.358521 482.897675,679.301208 479.979095,679.361877 
	C468.154358,679.608032 456.318726,679.697693 444.495728,679.443787 
	C440.735901,679.363037 439.581268,680.899536 439.014496,684.135498 
	C438.157196,689.029907 436.863861,693.848450 436.021149,698.744873 
	C434.808258,705.792297 430.396454,710.212952 423.721130,710.491882 
	C414.692902,710.869141 405.489075,710.412964 396.571655,708.990906 
	C389.632965,707.884277 387.934326,704.224243 389.616577,697.217957 
	C394.412231,677.245056 399.401764,657.318054 404.415131,637.398193 
	C410.644348,612.647461 416.914795,587.906677 423.319885,563.201111 
	C424.353394,559.214661 425.983948,555.345886 427.678375,551.575500 
	C431.380432,543.337646 438.577606,539.936584 446.940063,539.520569 
	C457.388275,539.000854 467.913483,538.902832 478.348694,539.544922 
	C490.114410,540.268860 496.905426,547.581421 499.812378,558.644958 
	C503.979889,574.505859 508.000488,590.405396 512.189941,606.686401 
M446.167633,639.624939 
	C445.833527,641.220520 445.499420,642.816101 445.082123,644.808899 
	C456.453613,644.808899 467.515198,644.808899 479.158478,644.808899 
	C473.647247,622.737488 468.224121,601.018799 462.800964,579.300171 
	C462.098755,579.287659 461.396545,579.275146 460.694305,579.262634 
	C455.932739,599.117859 451.171204,618.973083 446.167633,639.624939 
z"/>
<path fill="#FC5A33" opacity="1.000000" stroke="none" 
	d="
M1223.390015,712.145386 
	C1197.730713,713.993347 1179.444702,702.791687 1166.407227,681.906738 
	C1158.016846,668.466064 1154.433472,653.464417 1153.336426,637.916870 
	C1151.909668,617.695435 1152.864868,597.604248 1161.036621,578.637512 
	C1169.770020,558.366943 1183.738647,543.297424 1205.924072,538.170105 
	C1232.949097,531.924316 1256.888916,542.622070 1271.740112,566.442261 
	C1284.997925,587.706909 1287.966187,611.183777 1286.517334,635.511963 
	C1285.421631,653.907532 1280.622925,671.283813 1269.499146,686.323364 
	C1258.171265,701.639160 1243.445435,711.293335 1223.390015,712.145386 
M1198.879517,615.251038 
	C1198.947021,623.886292 1198.194946,632.631409 1199.332642,641.123352 
	C1200.303955,648.373718 1202.845215,655.596436 1205.800049,662.346252 
	C1208.641846,668.838135 1214.582642,671.590515 1221.787476,671.213623 
	C1228.324951,670.871765 1232.613281,667.318359 1235.204834,661.616821 
	C1236.705811,658.314514 1238.603027,654.867249 1238.854736,651.379395 
	C1239.857788,637.484680 1241.127075,623.515686 1240.586914,609.640686 
	C1240.294922,602.136169 1237.645630,594.193665 1234.127808,587.457642 
	C1227.326294,574.432922 1211.130127,574.605713 1205.145264,587.955750 
	C1201.516357,596.050415 1200.885132,605.488892 1198.879517,615.251038 
z"/>
<path fill="#FC5A33" opacity="1.000000" stroke="none" 
	d="
M1010.786987,647.968994 
	C1010.872437,647.534363 1010.957886,647.099670 1011.263672,646.071655 
	C1011.932556,643.643677 1012.381042,641.809082 1012.829529,639.974426 
	C1012.902405,639.537170 1012.975342,639.099854 1013.263855,638.044922 
	C1014.264282,633.608521 1015.049072,629.789917 1015.833923,625.971252 
	C1016.232117,624.559082 1016.630249,623.146851 1017.234863,621.096558 
	C1017.857666,618.625305 1018.273926,616.792175 1018.690186,614.959045 
	C1019.115234,613.191528 1019.540283,611.424011 1020.115540,609.192139 
	C1020.463135,608.513367 1020.442688,608.322449 1020.204346,608.154968 
	C1020.455200,607.373779 1020.706055,606.592651 1021.149902,605.113220 
	C1021.516785,603.270691 1021.690735,602.126343 1021.864685,600.982056 
	C1021.981812,600.646240 1022.098938,600.310364 1022.438843,599.531494 
	C1022.705444,598.727295 1022.749329,598.366150 1022.793213,598.005066 
	C1022.867737,597.560059 1022.942261,597.115112 1023.222656,596.066284 
	C1023.865906,593.628296 1024.303223,591.794067 1024.740601,589.959839 
	C1024.829590,589.524719 1024.918579,589.089600 1025.199951,588.024902 
	C1028.211670,576.591003 1031.030762,565.786682 1033.849854,554.982361 
	C1033.849854,554.982361 1034.064209,554.617859 1034.375732,554.223877 
	C1035.142456,552.570374 1035.597656,551.310791 1036.052856,550.051208 
	C1036.052856,550.051208 1036.000000,550.004883 1036.317871,549.888916 
	C1037.468506,548.550842 1038.301392,547.328796 1039.134277,546.106689 
	C1039.134277,546.106689 1039.018677,546.018616 1039.396973,545.997864 
	C1041.916626,544.742188 1044.057739,543.507324 1046.198975,542.272461 
	C1046.198975,542.272461 1046.247192,542.255066 1046.707275,542.277588 
	C1064.788086,541.796021 1082.408813,541.291931 1100.029419,540.787842 
	C1100.466919,540.866455 1100.904297,540.945129 1101.909546,541.235046 
	C1104.585205,544.077820 1107.026001,546.515686 1108.702759,549.398010 
	C1110.225586,552.015991 1110.917480,555.117432 1111.975830,558.005676 
	C1111.988403,558.449768 1112.000854,558.893799 1112.062256,560.051514 
	C1113.386475,565.517944 1114.661743,570.270752 1115.937012,575.023621 
	C1115.968872,575.461731 1116.000610,575.899780 1116.136841,577.035156 
	C1118.800171,587.497620 1121.359253,597.262756 1123.918213,607.027954 
	C1123.947998,607.466187 1123.977905,607.904358 1124.081543,609.046448 
	C1127.051392,620.923889 1129.947632,632.097412 1132.843872,643.270996 
	C1136.005493,656.811768 1139.160522,670.354065 1142.332886,683.892334 
	C1143.162354,687.431641 1144.224365,690.926147 1144.867920,694.497437 
	C1146.318970,702.551270 1143.647705,707.015198 1135.592407,707.737549 
	C1127.052124,708.503418 1118.368774,708.290100 1109.787964,707.802246 
	C1102.529663,707.389526 1099.460815,702.044556 1098.096313,695.554016 
	C1097.040283,690.529846 1095.765503,685.524109 1095.165405,680.442078 
	C1094.813110,677.458618 1093.826416,676.436584 1090.895996,676.458130 
	C1077.938843,676.553650 1064.980835,676.499451 1051.316406,676.499451 
	C1049.917603,682.828857 1048.408081,689.377930 1047.034302,695.955383 
	C1045.712158,702.285706 1042.152832,706.250183 1035.684082,707.588623 
	C1026.080933,709.575745 1016.537415,709.369690 1007.081238,706.906616 
	C1003.829651,706.059692 1000.756165,704.617981 999.977539,699.955994 
	C1000.183289,696.783447 1000.432678,694.369751 1000.682068,691.956116 
	C1000.775757,691.520874 1000.869385,691.085693 1001.066528,689.961609 
	C1003.687195,678.500122 1006.204285,667.727478 1008.721436,656.954834 
	C1008.815735,656.520508 1008.910034,656.086182 1009.180176,655.020813 
	C1009.833008,652.249512 1010.309998,650.109253 1010.786987,647.968994 
M1058.588257,628.023193 
	C1057.482666,632.810913 1056.376953,637.598633 1055.180420,642.780273 
	C1066.755127,642.780273 1077.674438,642.780273 1088.637573,642.780273 
	C1088.750977,642.122803 1088.994141,641.612976 1088.890015,641.188171 
	C1083.916260,620.886658 1078.931152,600.587769 1073.847046,580.313782 
	C1073.630371,579.449402 1072.463501,578.823181 1071.739258,578.086060 
	C1071.164917,578.988708 1070.300537,579.820435 1070.059692,580.804749 
	C1066.276367,596.269165 1062.573364,611.753174 1058.588257,628.023193 
z"/>
<path fill="#FC5B34" opacity="1.000000" stroke="none" 
	d="
M965.445251,653.557434 
	C972.267334,657.658752 973.298828,660.342224 971.030396,667.312927 
	C961.892151,695.394226 937.076843,710.166992 910.220337,712.000610 
	C892.621887,713.202026 876.054993,709.962219 861.345215,699.683838 
	C842.398193,686.444702 831.744324,667.807007 828.211487,645.410339 
	C824.619019,622.635742 826.293884,600.185486 837.806458,579.500061 
	C851.437927,555.007324 871.633118,539.977356 900.086670,536.827209 
	C916.898438,534.965942 932.746338,537.093994 948.015991,544.808350 
	C966.449951,554.121338 979.632507,577.562744 976.968323,597.751953 
	C976.307251,602.761414 972.974976,606.621826 967.940674,606.834167 
	C959.144043,607.205139 950.315491,607.157043 941.512451,606.887817 
	C937.425903,606.762817 934.975098,604.623230 934.895874,599.859619 
	C934.688477,587.390808 926.565186,579.204895 914.133911,577.916199 
	C900.039734,576.455139 888.999634,581.882385 881.963257,593.656250 
	C869.485779,614.534668 868.515564,636.372009 881.028381,657.538574 
	C893.689758,678.956482 924.505188,677.829834 936.488281,656.059998 
	C942.452026,645.225586 942.496277,645.136719 954.557068,648.985352 
	C958.178162,650.140808 961.609985,651.889587 965.445251,653.557434 
z"/>
<path fill="#FC5A33" opacity="1.000000" stroke="none" 
	d="
M276.894714,546.177124 
	C281.403259,543.647095 285.606049,539.955688 290.106689,539.547302 
	C308.983887,537.834534 327.986023,536.817139 346.592041,542.008606 
	C369.050812,548.274963 386.258972,567.890625 387.954559,588.876282 
	C390.163422,616.213623 378.830139,637.725403 356.465637,649.002136 
	C345.433929,654.564575 333.758301,657.364014 321.482422,657.946350 
	C320.510101,657.992432 319.543671,658.163025 318.266846,658.311584 
	C318.266846,668.591187 318.263611,678.691772 318.269073,688.792419 
	C318.270508,691.451355 318.512360,694.129395 318.276703,696.765808 
	C317.400208,706.572876 312.164764,711.506287 302.127686,711.997314 
	C298.471405,712.176086 294.792511,712.164062 291.135132,711.995605 
	C280.176697,711.491028 274.266541,705.556824 274.261597,694.627808 
	C274.257294,685.138245 274.947601,675.648560 274.952515,666.158752 
	C274.971130,629.997620 274.778809,593.836304 274.846283,557.675476 
	C274.853210,553.957764 276.070343,550.242249 276.894714,546.177124 
M330.109253,576.094910 
	C325.920624,575.601379 321.732025,575.107910 317.273560,574.582581 
	C317.273560,591.964783 317.273560,608.352173 317.273560,624.685242 
	C331.104553,627.204895 344.020538,620.225037 346.356384,608.137573 
	C349.012146,594.394348 346.474640,581.244873 330.109253,576.094910 
z"/>
<path fill="#FC5A33" opacity="1.000000" stroke="none" 
	d="
M655.663452,541.232422 
	C662.223022,549.590698 663.373779,567.108704 657.074463,574.795837 
	C654.722839,577.665527 649.770813,579.474060 645.851501,579.775085 
	C636.587402,580.486633 627.231628,580.003540 617.034668,580.003540 
	C617.034668,582.219788 617.021851,584.125916 617.036560,586.031799 
	C617.319946,622.834534 617.630493,659.637024 617.875549,696.440063 
	C617.936523,705.597595 615.513245,709.441589 606.557983,710.289917 
	C597.751892,711.124084 588.729980,710.352661 579.862244,709.592407 
	C575.102478,709.184204 572.159302,705.723206 571.971802,700.707703 
	C571.717285,693.899597 571.556763,687.082153 571.593384,680.269958 
	C571.765137,648.295288 572.021606,616.321045 572.229004,584.346619 
	C572.236450,583.194092 572.047119,582.040344 571.885071,580.127014 
	C568.086304,580.127014 564.332825,580.218201 560.585266,580.107971 
	C552.954407,579.883484 545.307373,579.790527 537.704895,579.174988 
	C532.861145,578.782776 530.156372,575.418091 528.911499,570.826721 
	C526.768250,562.922363 526.949158,555.022583 529.233826,547.222900 
	C530.792114,541.902954 535.054688,539.032715 541.467407,538.946106 
	C558.285522,538.718994 575.105652,538.623718 591.925232,538.519836 
	C608.578857,538.416992 625.235657,538.176636 641.884827,538.421692 
	C646.391846,538.487976 650.876282,540.093872 655.663452,541.232422 
z"/>
<path fill="#FC5B34" opacity="1.000000" stroke="none" 
	d="
M846.194702,302.206665 
	C842.565857,312.882172 836.612366,321.550964 828.623535,328.893005 
	C810.498596,345.550507 786.035706,340.872375 775.310669,318.670258 
	C762.876221,292.929138 770.167786,260.060303 792.248779,242.317230 
	C808.352478,229.377228 834.829163,235.917221 844.916016,255.831635 
	C852.473145,270.751709 851.404968,286.324738 846.194702,302.206665 
z"/>
<path fill="#FC5B34" opacity="1.000000" stroke="none" 
	d="
M686.154602,334.969116 
	C663.593140,322.433258 651.430481,289.351013 659.403625,263.719513 
	C663.900818,249.262192 673.259399,238.768387 688.776062,236.335358 
	C703.846619,233.972290 715.768311,240.611969 724.427002,252.751801 
	C738.920105,273.071686 740.992249,295.101654 731.771118,318.046661 
	C724.109375,337.111664 704.732971,344.177216 686.154602,334.969116 
z"/>
<path fill="#FC5C34" opacity="1.000000" stroke="none" 
	d="
M901.751587,387.779907 
	C893.819031,393.497192 885.505554,397.219299 875.893860,395.612091 
	C861.310791,393.173553 851.963135,382.651672 851.309082,367.229248 
	C850.413879,346.122040 858.377075,328.896790 876.093628,316.912659 
	C886.008240,310.206055 897.014404,308.881287 907.786316,314.471436 
	C919.147461,320.367279 925.102722,330.158997 924.999756,343.207886 
	C924.852539,361.860809 916.425476,376.263763 901.751587,387.779907 
z"/>
<path fill="#FC5C34" opacity="1.000000" stroke="none" 
	d="
M653.904785,349.240662 
	C656.106323,357.627411 656.843140,365.654541 654.459351,373.723511 
	C648.376526,394.313721 626.870056,402.057709 608.615234,389.540588 
	C590.231445,376.935028 581.122681,359.151215 583.084839,336.597992 
	C584.890015,315.849548 609.938843,304.778534 628.567627,316.023438 
	C641.327087,323.725403 649.215881,334.970398 653.904785,349.240662 
z"/>
<path fill="#FB5B35" opacity="1.000000" stroke="none" 
	d="
M1104.970093,535.208740 
	C1103.271240,535.168274 1101.572266,535.127869 1099.023804,535.069885 
	C1082.243408,536.009583 1066.321533,537.196777 1050.377686,537.818542 
	C1043.346924,538.092773 1036.957153,535.944580 1032.904907,529.342773 
	C1028.696777,522.486816 1029.323608,507.092224 1034.591797,501.377014 
	C1035.750610,500.119812 1038.306274,499.668945 1040.210693,499.687012 
	C1043.486816,499.718048 1046.756470,500.409607 1050.028931,500.823975 
	C1051.414307,500.869171 1052.799683,500.914368 1055.024170,500.990143 
	C1058.579102,500.691162 1061.294678,500.361633 1064.010376,500.032104 
	C1064.759155,500.042938 1065.508057,500.053833 1067.012085,500.042633 
	C1069.505249,499.661560 1071.243286,499.302582 1072.981201,498.943604 
	C1074.048828,498.931488 1075.116333,498.919373 1076.854614,498.865234 
	C1078.022949,498.569550 1078.520630,498.315918 1079.018311,498.062317 
	C1079.459351,498.049530 1079.900391,498.036774 1081.033447,498.016907 
	C1083.145386,497.662689 1084.565430,497.315582 1085.985474,496.968506 
	C1086.736816,496.974670 1087.488281,496.980804 1089.024292,496.945923 
	C1094.545898,496.424500 1099.278076,495.891235 1104.020874,495.477631 
	C1109.583618,494.992584 1114.818115,495.695435 1118.885132,500.090942 
	C1118.885132,500.090942 1118.999512,500.029419 1119.030396,500.428711 
	C1123.396851,508.573242 1122.412231,516.792603 1121.218262,525.030579 
	C1121.122314,525.459595 1121.026489,525.888672 1120.672974,526.850098 
	C1119.452515,528.968994 1118.489746,530.555603 1117.526855,532.142212 
	C1117.526855,532.142212 1117.307373,532.283875 1116.911499,532.496216 
	C1112.667114,533.541931 1108.818604,534.375366 1104.970093,535.208740 
z"/>

</svg>