<?xml version="1.0" encoding="utf-8"?>
<svg version="1.1" id="Layer_1" xmlns="http://www.w3.org/2000/svg" x="0px" y="0px" width="100%" viewBox="575.641 231.967 348.117 266.967">
  <path opacity="1.000000" stroke="none" d="M 693.259 495.963 C 673.069 493.193 662.359 477.733 659.849 458.553 C 655.279 423.593 666.159 394.373 693.639 371.783 C 729.709 342.143 781.259 344.873 814.259 377.893 C 832.089 395.733 842.009 417.073 843.289 442.183 C 843.969 455.333 841.919 468.133 834.049 479.233 C 823.199 494.543 805.379 499.403 787.019 492.853 C 777.529 489.473 767.899 486.093 758.039 484.323 C 743.529 481.713 729.689 485.573 716.469 491.683 C 709.249 495.023 701.719 496.773 693.259 495.963 Z" fill="#FD5A32"/>
  <path opacity="1.000000" stroke="none" d="M 842.999 301.323 C 839.369 311.993 833.419 320.663 825.429 328.003 C 807.299 344.663 782.839 339.983 772.119 317.783 C 759.679 292.043 766.969 259.173 789.049 241.433 C 805.159 228.493 831.639 235.033 841.719 254.943 C 849.279 269.863 848.209 285.433 842.999 301.323 Z" fill="#FC5B34"/>
  <path opacity="1.000000" stroke="none" d="M 682.959 334.083 C 660.399 321.543 648.239 288.463 656.209 262.833 C 660.709 248.373 670.059 237.883 685.579 235.453 C 700.649 233.083 712.569 239.723 721.229 251.863 C 735.729 272.183 737.799 294.213 728.579 317.163 C 720.919 336.223 701.539 343.293 682.959 334.083 Z" fill="#FC5B34"/>
  <path opacity="1.000000" stroke="none" d="M 898.559 386.893 C 890.629 392.613 882.309 396.333 872.699 394.723 C 858.119 392.283 848.769 381.763 848.119 366.343 C 847.219 345.233 855.179 328.013 872.899 316.023 C 882.809 309.323 893.819 307.993 904.589 313.583 C 915.949 319.483 921.909 329.273 921.799 342.323 C 921.659 360.973 913.229 375.373 898.559 386.893 Z" fill="#FC5C34"/>
  <path opacity="1.000000" stroke="none" d="M 650.709 348.353 C 652.909 356.743 653.649 364.763 651.259 372.833 C 645.179 393.423 623.679 401.173 605.419 388.653 C 587.039 376.043 577.929 358.263 579.889 335.713 C 581.699 314.963 606.739 303.893 625.369 315.133 C 638.129 322.833 646.019 334.083 650.709 348.353 Z" fill="#FC5C34"/>
</svg>