<?xml version="1.0" encoding="utf-8"?>
<svg version="1.1" id="Layer_1" xmlns="http://www.w3.org/2000/svg" x="0px" y="0px" width="100%" viewBox="265.602 228.552 1025.346 491.935">
  <path fill="#FD5A32" opacity="1.000000" stroke="none" d="M 693.259 495.963 C 673.069 493.193 662.359 477.733 659.849 458.553 C 655.279 423.593 666.159 394.373 693.639 371.783 C 729.709 342.143 781.259 344.873 814.259 377.893 C 832.089 395.733 842.009 417.073 843.289 442.183 C 843.969 455.333 841.919 468.133 834.049 479.233 C 823.199 494.543 805.379 499.403 787.019 492.853 C 777.529 489.473 767.899 486.093 758.039 484.323 C 743.529 481.713 729.689 485.573 716.469 491.683 C 709.249 495.023 701.719 496.773 693.259 495.963 Z"/>
  <path fill="#FC5A33" opacity="1.000000" stroke="none" d="M 807.779 698.235 C 807.939 705.546 806.779 708.167 800.299 708.709 C 790.119 709.559 779.809 709.303 769.589 708.891 C 765.139 708.712 762.009 705.424 760.889 701.023 C 759.329 694.921 758.339 688.671 756.649 682.611 C 756.219 681.048 754.099 678.857 752.709 678.826 C 739.739 678.536 726.749 678.654 713.379 678.654 C 711.859 685.274 710.259 691.653 708.949 698.091 C 707.569 704.829 703.409 709.114 696.859 709.491 C 687.969 710.001 678.909 709.964 670.089 708.844 C 663.079 707.953 660.609 703.813 661.799 696.575 C 663.159 688.257 665.229 680.037 667.309 671.858 C 676.739 634.921 686.309 598.023 695.769 561.093 C 699.899 544.983 706.599 538.883 723.249 538.143 C 733.649 537.683 744.169 538.063 754.529 539.103 C 763.489 539.993 769.199 546.123 771.729 554.503 C 775.519 567.023 778.909 579.673 782.079 592.373 C 790.249 625.043 798.219 657.766 806.239 690.475 C 806.839 692.892 807.249 695.354 807.779 698.235 M 744.179 644.362 C 746.459 644.362 748.749 644.362 751.879 644.362 C 746.329 622.195 740.959 600.693 735.579 579.183 C 734.929 579.163 734.269 579.143 733.619 579.123 C 728.389 600.673 723.159 622.218 717.789 644.362 C 726.629 644.362 734.919 644.362 744.179 644.362 Z"/>
  <path fill="#FC5A33" opacity="1.000000" stroke="none" d="M 508.999 605.803 C 516.469 635.503 523.909 664.793 531.179 694.126 C 533.389 703.083 530.479 707.927 521.449 708.866 C 513.099 709.734 504.569 709.602 496.166 709.13 C 490.461 708.81 486.243 705.467 484.833 699.508 C 483.457 693.696 482.029 687.891 480.913 682.028 C 480.426 679.471 479.702 678.414 476.784 678.474 C 464.959 678.72 453.123 678.81 441.3 678.556 C 437.541 678.475 436.386 680.012 435.819 683.248 C 434.962 688.142 433.669 692.961 432.826 697.857 C 431.613 704.905 427.201 709.325 420.526 709.604 C 411.498 709.981 402.294 709.525 393.376 708.103 C 386.438 706.997 384.739 703.337 386.421 696.33 C 391.217 676.357 396.207 656.43 401.22 636.51 C 407.449 611.76 413.72 587.023 420.125 562.313 C 421.158 558.323 422.789 554.453 424.483 550.693 C 428.185 542.453 435.382 539.053 443.745 538.633 C 454.193 538.113 464.718 538.013 475.153 538.653 C 486.919 539.383 493.71 546.693 496.617 557.753 C 500.789 573.613 504.809 589.513 508.999 605.803 M 442.972 638.737 C 442.638 640.333 442.304 641.928 441.887 643.921 C 453.258 643.921 464.32 643.921 475.963 643.921 C 470.452 621.85 465.029 600.133 459.606 578.413 C 458.903 578.403 458.201 578.383 457.499 578.373 C 452.737 598.233 447.976 618.085 442.972 638.737 Z"/>
  <path fill="#FC5A33" opacity="1.000000" stroke="none" d="M 1220.2 711.258 C 1194.54 713.106 1176.25 701.904 1163.21 681.019 C 1154.82 667.578 1151.24 652.577 1150.14 637.029 C 1148.72 616.808 1149.67 596.713 1157.84 577.753 C 1166.58 557.483 1180.54 542.413 1202.73 537.283 C 1229.75 531.033 1253.7 541.733 1268.55 565.553 C 1281.8 586.823 1284.77 610.296 1283.32 634.624 C 1282.23 653.02 1277.43 670.396 1266.3 685.436 C 1254.98 700.751 1240.25 710.406 1220.2 711.258 M 1195.69 614.363 C 1195.75 622.999 1195 631.744 1196.14 640.236 C 1197.11 647.486 1199.65 654.709 1202.61 661.459 C 1205.45 667.95 1211.39 670.703 1218.59 670.326 C 1225.13 669.984 1229.42 666.431 1232.01 660.729 C 1233.51 657.427 1235.41 653.98 1235.66 650.492 C 1236.66 636.597 1237.93 622.628 1237.39 608.753 C 1237.1 601.253 1234.45 593.303 1230.93 586.573 C 1224.13 573.543 1207.94 573.713 1201.95 587.063 C 1198.32 595.163 1197.69 604.603 1195.69 614.363 Z"/>
  <path fill="#FC5A33" opacity="1.000000" stroke="none" d="M 1030.66 554.093 C 1030.57 554.063 1032.08 550.283 1032.86 549.163 C 1032.77 549.063 1037.42 541.593 1043.48 541.253 C 1061.56 540.773 1079.22 540.403 1096.83 539.903 C 1105.15 539.833 1108.4 557.423 1108.87 559.163 C 1110.19 564.633 1111.47 569.383 1112.74 574.133 C 1112.77 574.573 1120.78 607.013 1120.89 608.153 C 1123.86 620.036 1126.75 631.209 1129.65 642.383 C 1132.81 655.924 1135.97 669.466 1139.14 683.004 C 1139.97 686.544 1141.03 690.038 1141.67 693.609 C 1143.13 701.663 1140.45 706.127 1132.4 706.85 C 1123.86 707.615 1115.18 707.402 1106.59 706.914 C 1099.34 706.502 1096.27 701.157 1094.9 694.666 C 1093.85 689.642 1092.57 684.636 1091.97 679.554 C 1091.62 676.571 1090.63 675.549 1087.7 675.57 C 1074.74 675.666 1066.71 675.654 1053.05 675.654 C 1049.17 675.666 1047.49 678.437 1047.18 679.865 C 1046.06 684.855 1044.91 689.953 1043.84 695.067 C 1042.52 701.398 1038.96 705.362 1032.49 706.701 C 1022.89 708.688 1013.34 708.482 1003.89 706.019 C 1000.64 705.172 994.889 703.662 997.489 691.068 M 1055.39 627.135 C 1054.29 631.923 1053.18 636.711 1051.99 641.892 C 1063.56 641.892 1074.48 641.892 1085.44 641.892 C 1084.11 639.947 1075.74 599.703 1070.65 579.423 C 1070.44 578.563 1070.01 577.163 1068.54 577.203 C 1067.42 577.193 1066.99 578.603 1066.74 579.593 C 1062.96 595.053 1059.38 610.865 1055.39 627.135 Z"/>
  <path fill="#FC5B34" opacity="1.000000" stroke="none" d="M 962.249 652.67 C 969.069 656.771 970.099 659.455 967.839 666.425 C 958.699 694.507 933.879 709.279 907.029 711.113 C 889.429 712.314 872.859 709.075 858.149 698.796 C 839.199 685.557 828.549 666.919 825.019 644.523 C 821.429 621.748 823.099 599.293 834.609 578.613 C 848.239 554.123 868.439 539.093 896.889 535.943 C 913.699 534.073 929.549 536.203 944.819 543.923 C 963.259 553.233 976.439 576.673 973.769 596.863 C 973.109 601.873 969.779 605.733 964.749 605.943 C 955.949 606.313 947.119 606.273 938.319 606.003 C 934.229 605.873 931.779 603.733 931.699 598.973 C 931.489 586.503 923.369 578.313 910.939 577.033 C 896.839 575.563 885.799 580.993 878.769 592.773 C 866.289 613.647 865.319 635.484 877.829 656.651 C 890.489 678.069 921.309 676.942 933.289 655.172 C 939.259 644.338 939.299 644.249 951.359 648.098 C 954.979 649.253 958.419 651.002 962.249 652.67 Z"/>
  <path fill="#FC5A33" opacity="1.000000" stroke="none" d="M 271.65 543.303 C 278.77 539.913 282.411 539.073 286.912 538.663 C 305.789 536.943 324.791 535.933 343.397 541.123 C 365.856 547.383 383.064 567.003 384.76 587.983 C 386.968 615.326 375.266 636.133 353.271 648.114 C 333.374 658.952 316.349 657.275 315.072 657.424 C 315.072 667.703 315.317 693.241 315.082 695.878 C 314.205 705.685 308.97 710.618 298.933 711.109 C 295.276 711.288 291.598 711.276 287.94 711.108 C 276.982 710.603 271.072 704.669 271.067 693.74 C 271.062 684.25 271.753 674.761 271.758 665.271 C 271.776 629.11 271.584 592.953 271.651 556.783 M 326.978 574.213 C 322.79 573.723 318.798 573.333 314.079 573.693 C 314.079 591.073 314.079 607.463 314.079 623.797 C 327.628 626.22 340.826 619.337 343.161 607.253 C 345.817 593.503 343.344 579.363 326.978 574.213 Z"/>
  <path fill="#FC5A33" opacity="1.000000" stroke="none" d="M 652.469 540.343 C 659.029 548.703 660.179 566.223 653.879 573.913 C 651.529 576.773 646.579 578.583 642.659 578.883 C 633.389 579.603 624.039 579.113 613.839 579.113 C 613.839 581.333 614.439 658.749 614.679 695.552 C 614.739 704.71 612.319 708.554 603.359 709.402 C 594.559 710.236 585.539 709.465 576.669 708.704 C 571.909 708.296 568.969 704.835 568.779 699.82 C 568.519 693.012 568.849 581.153 568.689 579.243 C 564.889 579.243 542.109 578.903 534.509 578.283 C 529.669 577.893 526.959 574.533 525.719 569.943 C 523.569 562.033 523.749 554.133 526.039 546.333 C 527.599 541.013 531.859 538.143 538.269 538.053 C 555.089 537.833 571.909 537.733 588.729 537.633 C 605.389 537.533 622.039 537.293 638.689 537.533 C 643.199 537.603 649.189 537.263 652.469 540.343 Z"/>
  <path fill="#FC5B34" opacity="1.000000" stroke="none" d="M 842.999 301.323 C 839.369 311.993 833.419 320.663 825.429 328.003 C 807.299 344.663 782.839 339.983 772.119 317.783 C 759.679 292.043 766.969 259.173 789.049 241.433 C 805.159 228.493 831.639 235.033 841.719 254.943 C 849.279 269.863 848.209 285.433 842.999 301.323 Z"/>
  <path fill="#FC5B34" opacity="1.000000" stroke="none" d="M 682.959 334.083 C 660.399 321.543 648.239 288.463 656.209 262.833 C 660.709 248.373 670.059 237.883 685.579 235.453 C 700.649 233.083 712.569 239.723 721.229 251.863 C 735.729 272.183 737.799 294.213 728.579 317.163 C 720.919 336.223 701.539 343.293 682.959 334.083 Z"/>
  <path fill="#FC5C34" opacity="1.000000" stroke="none" d="M 898.559 386.893 C 890.629 392.613 882.309 396.333 872.699 394.723 C 858.119 392.283 848.769 381.763 848.119 366.343 C 847.219 345.233 855.179 328.013 872.899 316.023 C 882.809 309.323 893.819 307.993 904.589 313.583 C 915.949 319.483 921.909 329.273 921.799 342.323 C 921.659 360.973 913.229 375.373 898.559 386.893 Z"/>
  <path fill="#FC5C34" opacity="1.000000" stroke="none" d="M 650.709 348.353 C 652.909 356.743 653.649 364.763 651.259 372.833 C 645.179 393.423 623.679 401.173 605.419 388.653 C 587.039 376.043 577.929 358.263 579.889 335.713 C 581.699 314.963 606.739 303.893 625.369 315.133 C 638.129 322.833 646.019 334.083 650.709 348.353 Z"/>
  <path fill="#FB5B35" opacity="1.000000" stroke="none" d="M 1118.02 524.143 C 1115.46 533.293 1098.38 534.243 1095.83 534.183 C 1079.05 535.123 1063.13 536.313 1047.18 536.933 C 1040.15 537.203 1033.76 535.053 1029.71 528.453 C 1025.5 521.603 1026.13 506.203 1031.4 500.493 C 1032.56 499.233 1035.11 498.783 1037.02 498.803 C 1040.29 498.833 1046.45 500.283 1051.83 500.103 C 1073.49 499.183 1096.08 495.003 1100.83 494.593 C 1106.39 494.103 1111.62 494.803 1115.69 499.203 C 1115.69 499.203 1121.85 506.013 1118.02 524.143 Z"/>
</svg>